<svg id="Layer_1" data-name="Layer 1" xmlns="http://www.w3.org/2000/svg" viewBox="0 0 64 64"><path d="M46,28V17a15,15,0,0,0-30,0V28H14a3,3,0,0,0-3,3V59a3,3,0,0,0,3,3H48a3,3,0,0,0,3-3V31a3,3,0,0,0-3-3ZM18,17a13,13,0,0,1,26,0V28H42V17a11,11,0,0,0-22,0V28H18Zm22,0V28H22V17a9,9,0,0,1,18,0Zm9,14V59a1,1,0,0,1-1,1H14a1,1,0,0,1-1-1V31a1,1,0,0,1,1-1H48A1,1,0,0,1,49,31Z" id="id_101" style="fill: rgb(255, 255, 255);"></path><path d="M31,34A11,11,0,1,0,42,45,11.013,11.013,0,0,0,31,34Zm3.545,19.27a8.973,8.973,0,0,1-7.09,0V48.5a1.5,1.5,0,0,1,1.5-1.5h4.09a1.5,1.5,0,0,1,1.5,1.5Zm-5.3-11.02A1.75,1.75,0,1,1,31,44,1.752,1.752,0,0,1,29.25,42.25Zm7.3,9.824V48.5a3.493,3.493,0,0,0-3.068-3.456,3.75,3.75,0,1,0-4.954,0A3.493,3.493,0,0,0,25.455,48.5v3.574a9,9,0,1,1,11.09,0Z" id="id_102" style="fill: rgb(255, 255, 255);"></path><rect x="52.568" y="22.651" width="4" height="1.999" transform="translate(-4.032 33.805) rotate(-33.263)" id="id_103" style="fill: rgb(255, 255, 255);"></rect><rect x="53.638" y="27.929" width="4" height="2" transform="translate(-2.996 6.691) rotate(-6.702)" id="id_104" style="fill: rgb(255, 255, 255);"></rect><rect x="48.153" y="19.567" width="4" height="2" transform="matrix(0.503, -0.864, 0.864, 0.503, 7.163, 53.585)" id="id_105" style="fill: rgb(255, 255, 255);"></rect></svg>