<?xml version="1.0" encoding="UTF-8"?>
<!DOCTYPE svg PUBLIC "-//W3C//DTD SVG 1.1//EN" "http://www.w3.org/Graphics/SVG/1.1/DTD/svg11.dtd">
<!-- Creator: CorelDRAW -->
<svg xmlns="http://www.w3.org/2000/svg" xml:space="preserve" width="2.66666in" height="2.66666in" version="1.1" style="shape-rendering:geometricPrecision; text-rendering:geometricPrecision; image-rendering:optimizeQuality; fill-rule:evenodd; clip-rule:evenodd"
viewBox="0 0 2666.66 2666.66"
 xmlns:xlink="http://www.w3.org/1999/xlink"
 xmlns:xodm="http://www.corel.com/coreldraw/odm/2003">
 <defs>
  <style type="text/css">
   <![CDATA[
    .fil3 {fill:#456B96}
    .fil5 {fill:#4D4D4D}
    .fil2 {fill:#5684B9}
    .fil0 {fill:#B5EAD7}
    .fil6 {fill:#FFA48A}
    .fil1 {fill:#FFB091}
    .fil4 {fill:#FFC3A1}
   ]]>
  </style>
 </defs>
 <g id="Layer_x0020_1">
  <metadata id="CorelCorpID_0Corel-Layer"/>
  <circle class="fil0" cx="1333.33" cy="1333.33" r="1333.33"/>
  <path class="fil1" d="M1505.43 1434.78c-50.76,28.35 -109.81,42 -167.15,42 -64.53,0 -126.23,-16.12 -177.71,-46.18 -1.64,24.66 -1.81,70.43 -27.94,107.12l199.52 215.43 201.85 -215.46c-20.7,-28.7 -27.26,-74.15 -28.57,-102.91z"/>
  <path class="fil2" d="M1939.82 2186.56l-1212.99 0c-11.04,0 -20,-8.97 -20,-20l0 -344.43c0,-153.73 123.17,-277.12 280.43,-280.91l145.37 -3.5 199.52 215.43 201.85 -215.46 145.41 3.5c157.24,3.76 280.43,127.16 280.43,280.91l-0.01 344.46c-0.02,11.04 -8.97,20 -20.01,20zm-807.2 -648.83c1.79,-2.51 2.81,-3.94 0,0z"/>
  <path class="fil3" d="M993.85 2186.56l-40 0 0 -269.63 -247.03 0 0 -40 247.03 0 0 -79.57c0,-26.33 40,-26.31 40,0l0 389.2z"/>
  <g id="_2683407764288">
   <path class="fil3" d="M1712.79 2186.56l-40 0 0 -389.2c0,-26.33 40,-26.3 40,0l0 389.2z"/>
   <path class="fil3" d="M1959.84 1876.93l-0 40 -267.04 0c-26.31,0 -26.32,-40 0,-40l267.04 0z"/>
  </g>
  <polygon class="fil3" points="1353.31,2186.56 1313.31,2186.56 1313.31,1732.83 1332.14,1753.15 1353.31,1730.56 "/>
  <path class="fil4" d="M1338.28 1486.68c-161.46,0 -305.16,-100.91 -315.59,-268.56 -110.49,-65.71 -109.05,-155.82 -30.44,-221.15 -2.92,-109.91 1.71,-219.52 156.25,-214.31 92.21,3.11 78.79,4.87 191.22,-13.16 172.85,-27.73 327.7,-39.4 334.23,227.09 78.87,65.13 80.92,155.48 -29.94,221.47 -10.38,184.39 -163.3,268.61 -305.72,268.61z"/>
  <path class="fil5" d="M948.62 1048.83c-109.74,-224.71 -42.24,-300.42 40.62,-368.43 115.09,-94.48 20.51,-122.22 49.27,-166.58 13.27,-20.48 48.64,-16.92 91.88,-21.41 133.6,-13.87 377.13,-42.83 422.39,94.64 267.36,24.95 229.46,359.11 163.88,459.78 -8.39,-15.29 -21.59,-31.76 -42.71,-50.24 -0.19,-5.31 -0.38,-10.63 -0.57,-15.94 -12.27,-250.07 -164.34,-225.07 -333.66,-197.92 -112.42,18.03 -99.03,16.26 -191.22,13.16 -146.01,-4.91 -157.81,97.61 -156.25,201.08 -18,13.81 -31.56,32.09 -43.62,51.86z"/>
  <path class="fil6" d="M1165.5 1138.24c-28.12,0 -22.76,-33.06 -22.76,-54.19 0,-29.97 45.52,-29.97 45.52,0 0,21.15 5.36,54.19 -22.76,54.19z"/>
  <path class="fil6" d="M1502.15 1139.11c-28.68,0 -22.76,-34.73 -22.76,-58.68 0,-29.96 45.52,-29.96 45.52,0 0,23.96 5.92,58.68 -22.76,58.68z"/>
  <path class="fil6" d="M1230.81 1028.16c-5.44,0 -10.91,-1.94 -15.25,-5.88 -27.61,-24.97 -72.5,-24.96 -100.11,0 -22.21,20.11 -52.78,-13.65 -30.54,-33.77 73,-66.05 197.93,-6.67 162.79,32.15 -4.49,4.96 -10.69,7.49 -16.89,7.49z"/>
  <path class="fil6" d="M1567.45 1028.16c-5.46,0 -10.91,-1.94 -15.27,-5.88 -27.6,-24.96 -72.49,-24.96 -100.09,0 -22.19,20.11 -52.78,-13.63 -30.52,-33.77 73.04,-66.08 197.89,-6.66 162.77,32.15 -4.49,4.96 -10.67,7.49 -16.88,7.49z"/>
  <path class="fil6" d="M1333.81 1353.25c-56.67,0 -142.09,-40.29 -112.07,-73.47 8.44,-9.35 22.83,-10.06 32.16,-1.61 44.07,39.87 115.79,39.85 159.84,0 22.23,-20.07 52.76,13.65 30.52,33.77 -30.43,27.54 -70.46,41.32 -110.45,41.32z"/>
  <path class="fil3" d="M1599.49 1878.09l-152.72 0c-26.33,0 -26.32,-40 0,-40l152.72 0c26.33,0 26.33,40 0,40z"/>
  <path class="fil3" d="M1201.6 1878.09l-152.72 0c-26.32,0 -26.32,-40 0,-40l152.72 0c26.32,0 26.32,40 0,40z"/>
 </g>
</svg>
